<?xml version="1.0" standalone="no"?><!DOCTYPE svg PUBLIC "-//W3C//DTD SVG 1.1//EN" "http://www.w3.org/Graphics/SVG/1.1/DTD/svg11.dtd"><svg t="1712308189853" class="icon" viewBox="0 0 1024 1024" version="1.1" xmlns="http://www.w3.org/2000/svg" p-id="4719" xmlns:xlink="http://www.w3.org/1999/xlink" width="64" height="64"><path d="M266.778947 363.789474h517.389474c10.778947 0 18.863158-8.084211 18.863158-18.863158s-8.084211-18.863158-18.863158-18.863158H266.778947c-10.778947 0-18.863158 8.084211-18.863158 18.863158s10.778947 18.863158 18.863158 18.863158zM266.778947 495.831579h312.589474c10.778947 0 18.863158-8.084211 18.863158-18.863158s-8.084211-18.863158-18.863158-18.863158H266.778947c-10.778947 0-18.863158 8.084211-18.863158 18.863158s10.778947 18.863158 18.863158 18.863158z" fill="#1296db" p-id="4720"></path><path d="M827.284211 35.031579H323.368421 315.284211c-2.694737 0-2.694737 2.694737-2.694737 2.694737h-2.694737l-167.073684 161.68421s-2.694737 2.694737-2.694737 5.389474v727.578947c0 32.336842 26.947368 59.284211 59.28421 59.284211h633.263158c32.336842 0 59.284211-26.947368 59.284211-59.284211v-51.2c0-10.778947-8.084211-18.863158-18.863158-18.863158s-18.863158 8.084211-18.863158 18.863158v51.2c0 10.778947-10.778947 21.557895-21.557895 21.557895H196.715789c-10.778947 0-21.557895-10.778947-21.557894-21.557895v-700.631579h91.621052c40.421053 0 72.757895-32.336842 72.757895-72.757894V72.757895h485.052632c10.778947 0 21.557895 10.778947 21.557894 21.557894v420.378948c0 10.778947 8.084211 18.863158 18.863158 18.863158s18.863158-8.084211 18.863158-18.863158V94.315789c2.694737-32.336842-24.252632-59.284211-56.589473-59.28421zM266.778947 194.021053H202.105263l102.4-97.010527v59.284211c0 21.557895-16.168421 37.726316-37.726316 37.726316z" fill="#1296db" p-id="4721"></path><path d="M773.389474 765.305263c2.694737 2.694737 8.084211 5.389474 13.473684 5.389474s10.778947-2.694737 13.473684-5.389474l80.842105-80.842105 5.389474-5.389474c2.694737-5.389474 2.694737-10.778947 0-13.473684 0-2.694737-2.694737-5.389474-5.389474-5.389474l-78.147368-78.147368c-8.084211-8.084211-18.863158-8.084211-26.947368 0s-8.084211 18.863158 0 26.947368l45.810526 45.810527H619.789474c-56.589474 0-105.094737 45.810526-105.094737 105.094736 0 56.589474 45.810526 105.094737 105.094737 105.094737h80.842105c10.778947 0 18.863158-8.084211 18.863158-18.863158s-8.084211-18.863158-18.863158-18.863157h-80.842105c-37.726316 0-67.368421-29.642105-67.368421-67.368422s29.642105-67.368421 67.368421-67.368421h202.105263l-48.505263 48.505264c-5.389474 5.389474-5.389474 16.168421 0 24.252631z" fill="#1296db" p-id="4722"></path></svg>