<?xml version="1.0" standalone="no"?><!DOCTYPE svg PUBLIC "-//W3C//DTD SVG 1.1//EN" "http://www.w3.org/Graphics/SVG/1.1/DTD/svg11.dtd"><svg t="1712308735469" class="icon" viewBox="0 0 1024 1024" version="1.1" xmlns="http://www.w3.org/2000/svg" p-id="8709" xmlns:xlink="http://www.w3.org/1999/xlink" width="128" height="128"><path d="M467.456 906.24H210.4832a30.72 30.72 0 0 1-30.72-30.72V168.96a30.72 30.72 0 0 1 30.72-30.72h75.1616v363.9808a44.4928 44.4928 0 0 0 24.2176 39.2192 54.016 54.016 0 0 0 25.6 6.4 53.1968 53.1968 0 0 0 28.8768-8.448l66.0992-43.0592L496.64 539.392a54.016 54.016 0 0 0 54.4768 2.048 44.4928 44.4928 0 0 0 24.2176-39.2192V138.24h218.9824a30.72 30.72 0 0 1 30.72 30.72v303.9232a30.72 30.72 0 1 0 61.44 0V168.96a92.16 92.16 0 0 0-92.16-92.16h-583.68a92.16 92.16 0 0 0-92.16 92.16v706.56a92.16 92.16 0 0 0 92.16 92.16H467.456a30.72 30.72 0 1 0 0-61.44z m46.08-429.0048L459.3664 441.856a53.8624 53.8624 0 0 0-57.9072 0l-54.3744 35.4304V148.48h166.656z" fill="#1296db" p-id="8710"></path><path d="M717.7216 651.8784a89.7024 89.7024 0 1 0 89.7024 89.7024 89.8048 89.8048 0 0 0-89.7024-89.7024z m0 117.76a28.2624 28.2624 0 1 1 28.2624-28.2624 28.2624 28.2624 0 0 1-28.2624 28.4672z" fill="#1296db" p-id="8711"></path><path d="M933.0176 787.2l-1.6896-2.2528-2.048-1.8944a58.88 58.88 0 0 1-0.9728-85.6064A36.4032 36.4032 0 0 0 936.96 655.36a206.5408 206.5408 0 0 0-35.1744-52.224 45.2608 45.2608 0 0 0-43.5712-13.056c-15.8208 2.9696-24.4224 1.4336-39.936-6.9632l-0.7168-0.4096a63.7952 63.7952 0 0 1-32.4096-35.0208 40.96 40.96 0 0 0-34.4064-28.0576A278.2208 278.2208 0 0 0 716.8 517.12c-4.352 0-10.24 0-17.408 0.6144l-15.104 1.3312a40.6016 40.6016 0 0 0-35.84 28.0064 63.8464 63.8464 0 0 1-31.5904 35.0208c-18.2272 9.1136-25.6 10.24-41.5232 7.5264a43.2128 43.2128 0 0 0-43.5712 15.36 223.8976 223.8976 0 0 0-33.4336 51.5584 35.84 35.84 0 0 0 7.6288 39.424l0.5632 0.5632a58.88 58.88 0 0 1 1.28 85.9136 36.4032 36.4032 0 0 0-8.96 41.8304 193.3824 193.3824 0 0 0 34.4576 52.1216 44.8512 44.8512 0 0 0 44.0832 13.6192c15.7696-3.0208 22.2208-1.792 37.888 6.8608l0.9216 0.4608a64.1024 64.1024 0 0 1 32.4096 35.0208 40.96 40.96 0 0 0 34.4064 28.0576 280.8832 280.8832 0 0 0 33.792 2.1504c4.4032 0 10.24 0 17.2032-0.5632h0.8192l3.7376-0.3072c2.816 0 6.144-0.4608 11.264-1.0752a41.3184 41.3184 0 0 0 34.4064-24.576l0.9216-2.7648a59.2384 59.2384 0 0 1 31.5904-35.4816c18.176-8.9088 27.4432-10.5472 42.9056-7.5776a44.1856 44.1856 0 0 0 44.2368-15.36 239.4112 239.4112 0 0 0 32.768-50.1248 34.9696 34.9696 0 0 0-3.6352-37.5296z m-59.5968 25.344c-3.2768 5.12-6.912 10.5472-10.9568 15.8208-28.5696-3.6352-50.0736 3.0208-72.96 14.2336a122.3168 122.3168 0 0 0-57.344 57.856l-3.4304 0.3072c-4.096 0.3584-8.192 0.3584-11.776 0.3584a145.2032 145.2032 0 0 1-15.0528-0.8192 127.1296 127.1296 0 0 0-57.3952-57.8048c-25.6-14.1312-45.2608-18.2272-71.68-14.3872a133.12 133.12 0 0 1-10.7008-15.36 120.064 120.064 0 0 0 0-146.3808 174.08 174.08 0 0 1 10.8032-15.36c24.9856 3.2256 44.1856-0.8704 71.424-14.4896A124.3136 124.3136 0 0 0 701.44 579.072l3.4304-0.3072c4.2496-0.3584 8.3968-0.3584 12.0832-0.3584a143.872 143.872 0 0 1 15.0528 0.8192 127.5904 127.5904 0 0 0 57.5488 57.856 111.104 111.104 0 0 0 73.2672 14.336 143.36 143.36 0 0 1 10.9056 15.36 120.2688 120.2688 0 0 0 0 145.7664z" fill="#1296db" p-id="8712"></path></svg>