<?xml version="1.0" standalone="no"?><!DOCTYPE svg PUBLIC "-//W3C//DTD SVG 1.1//EN" "http://www.w3.org/Graphics/SVG/1.1/DTD/svg11.dtd"><svg t="1726124538837" class="icon" viewBox="0 0 1024 1024" version="1.1" xmlns="http://www.w3.org/2000/svg" p-id="2186" xmlns:xlink="http://www.w3.org/1999/xlink" width="128" height="128"><path d="M311.224 428.616V40.96C186.696 93.99 87.406 195.29 36.936 321.096l274.286 274.286 0.002-166.766z" fill="#AFE164" p-id="2187"></path><path d="M428.616 311.22L702.904 36.936C643.84 13.164 579.474 0 512 0c-71.314 0-139.154 14.628-200.776 40.96v387.656L428.616 311.22z" fill="#D7E664" p-id="2188"></path><path d="M983.04 311.22H595.384l117.394 117.396 274.286 274.286C1010.836 643.84 1024 579.474 1024 512c0-71.314-14.628-139.154-40.96-200.78z" fill="#FFAA64" p-id="2189"></path><path d="M712.776 595.384V983.04c124.526-53.03 223.816-154.33 274.286-280.136L712.776 428.616v166.768z" fill="#FF6469" p-id="2190"></path><path d="M595.384 712.776L321.096 987.064C380.16 1010.834 444.526 1024 512 1024c71.316 0 139.154-14.628 200.776-40.96V595.384L595.384 712.776z" fill="#C3B4FA" p-id="2191"></path><path d="M428.616 712.776H40.96c53.03 124.526 154.33 223.816 280.136 274.286l274.286-274.286H428.616z" fill="#7DD2F0" p-id="2192"></path><path d="M311.224 595.384L36.936 321.096C13.164 380.16 0 444.526 0 512c0 71.314 14.628 139.154 40.96 200.776h387.656L311.224 595.384z" fill="#7DE6C3" p-id="2193"></path><path d="M595.384 311.22H983.04C930.01 186.696 828.71 87.404 702.904 36.936L428.616 311.22h166.768z" fill="#FFE669" p-id="2194"></path></svg>