<?xml version="1.0" standalone="no"?><!DOCTYPE svg PUBLIC "-//W3C//DTD SVG 1.1//EN" "http://www.w3.org/Graphics/SVG/1.1/DTD/svg11.dtd"><svg t="1712308324194" class="icon" viewBox="0 0 1025 1024" version="1.1" xmlns="http://www.w3.org/2000/svg" p-id="12788" xmlns:xlink="http://www.w3.org/1999/xlink" width="64.0625" height="64"><path d="M513.199766 0c-282.744776 0-511.90002 229.155243-511.90002 511.90002s229.155243 511.90002 511.90002 511.900019 511.90002-229.155243 511.900019-511.900019-229.155243-511.90002-511.900019-511.90002z m0 959.812537c-246.951767 0-447.912517-200.96075-447.912517-447.912517s200.96075-447.912517 447.912517-447.912518 447.912517 200.96075 447.912517 447.912518-200.96075 447.912517-447.912517 447.912517z" fill="#1296db" p-id="12789"></path><path d="M512.299941 319.937512m-31.993751 0a31.993751 31.993751 0 1 0 63.987503 0 31.993751 31.993751 0 1 0-63.987503 0Z" fill="#1296db" p-id="12790"></path><path d="M512.699863 419.418082c-17.596563 0-31.993751 14.397188-31.993751 31.993752v255.950009c0 17.596563 14.397188 31.993751 31.993751 31.993752s31.993751-14.397188 31.993752-31.993752v-255.950009c0-17.596563-14.397188-31.993751-31.993752-31.993752z" fill="#1296db" p-id="12791"></path></svg>