<?xml version="1.0" standalone="no"?><!DOCTYPE svg PUBLIC "-//W3C//DTD SVG 1.1//EN" "http://www.w3.org/Graphics/SVG/1.1/DTD/svg11.dtd"><svg t="1712308020521" class="icon" viewBox="0 0 1024 1024" version="1.1" xmlns="http://www.w3.org/2000/svg" p-id="1851" xmlns:xlink="http://www.w3.org/1999/xlink" width="64" height="64"><path d="M948.6 242.9c-67.1-33.4-138.6-50.4-212.7-50.4s-145.6 17-212.7 50.4l-2.3 1.1c-6 3-13 3-18.9 0l-2.3-1.1c-67.1-33.4-138.6-50.4-212.7-50.4s-145.6 17-212.7 50.4c-7.2 3.6-11.7 10.9-11.7 19v541.9c0 11.7 9.5 21.2 21.2 21.2h1.7c2.1 0 4.1-0.3 6.1-0.9 62.1-18.5 128.5-27.9 197.1-27.9 68.1 0 133.9 9.2 195.5 27.5l21.2 6.3c3.9 1.2 8.1 1.2 12 0l21.2-6.3c61.7-18.2 127.5-27.5 195.5-27.5 68.7 0 135 9.4 197.1 27.9 2 0.6 4 0.9 6.1 0.9h1.7c11.7 0 21.2-9.5 21.2-21.2V261.9c0.2-8-4.4-15.4-11.6-19z m-479.5 506c0 13.4-12.4 23.5-25.5 20.8-49.8-10.5-101.7-15.9-154.8-15.9-54.3 0-107.2 5.6-158.1 16.6-13.2 2.9-25.6-7.3-25.6-20.7V289c0-8.5 5.1-16.2 12.9-19.5 53.9-23 110.7-34.6 169.1-34.6 58.5 0 115.2 11.6 169.1 34.6 7.8 3.3 12.9 11 12.9 19.5v459.9z m448.8 0.7c0 13.5-12.4 23.6-25.6 20.7-50.8-11-103.8-16.6-158.1-16.6-53.1 0-105 5.3-154.8 15.9-13.2 2.8-25.5-7.3-25.5-20.8V289c0-8.5 5.1-16.2 12.9-19.5 53.9-23 110.7-34.6 169.1-34.6s115.2 11.6 169.1 34.6c7.8 3.3 12.9 11 12.9 19.5v460.6z" p-id="1852" fill="#1296db"></path></svg>