<?xml version="1.0" standalone="no"?><!DOCTYPE svg PUBLIC "-//W3C//DTD SVG 1.1//EN" "http://www.w3.org/Graphics/SVG/1.1/DTD/svg11.dtd"><svg t="1712308345045" class="icon" viewBox="0 0 1024 1024" version="1.1" xmlns="http://www.w3.org/2000/svg" p-id="14769" xmlns:xlink="http://www.w3.org/1999/xlink" width="64" height="64"><path d="M511.609097 961.619254" fill="#1296db" p-id="14770"></path><path d="M946.867272 147.167804l-70.839395-70.847581c-16.321734-16.08228-42.418089-16.08228-58.496276 0l-74.117045 74.108858 129.343857 129.343857 74.108858-73.882708C962.953645 189.347462 962.953645 163.245991 946.867272 147.167804L946.867272 147.167804 946.867272 147.167804zM721.512734 172.565241 320.671417 586.225515 287.815101 735.381603l149.146878-32.864502 411.561473-403.171386L721.512734 172.565241 721.512734 172.565241zM809.838386 511.651053l0 349.570607c0 11.887748-9.083889 23.541159-21.437242 23.541159-12.353352 0-626.900913-0.23536-626.900913-0.23536-13.049201 0-22.841218-12.583596-22.841218-23.305799L138.659013 236.654908c0-11.653411 10.952446-23.305799 24.705682-23.305799l348.170724 0 74.574463-74.573439-467.487204 0c-30.299073 0-54.536081 24.004717-54.536081 54.301743l0 711.496613c0 30.05655 24.470321 54.527894 54.536081 54.527894l711.49252 0c30.061666 0 54.296627-24.470321 54.296627-54.527894L884.411825 437.078637 809.838386 511.651053 809.838386 511.651053 809.838386 511.651053zM809.838386 511.651053" fill="#1296db" p-id="14771"></path></svg>