<?xml version="1.0" standalone="no"?><!DOCTYPE svg PUBLIC "-//W3C//DTD SVG 1.1//EN" "http://www.w3.org/Graphics/SVG/1.1/DTD/svg11.dtd"><svg t="1712306957209" class="icon" viewBox="0 0 1024 1024" version="1.1" xmlns="http://www.w3.org/2000/svg" p-id="12150" xmlns:xlink="http://www.w3.org/1999/xlink" width="64" height="64"><path d="M512 512m-512 0a512 512 0 1 0 1024 0 512 512 0 1 0-1024 0Z" fill="#FDEBED" p-id="12151"></path><path d="M640 486.4h-102.4v-102.4c0-56.32 46.08-102.4 102.4-102.4s102.4 46.08 102.4 102.4-46.08 102.4-102.4 102.4zM384 742.4c-56.32 0-102.4-46.08-102.4-102.4s46.08-102.4 102.4-102.4h102.4v102.4c0 56.32-46.08 102.4-102.4 102.4z m-102.4-358.4c0-56.32 46.08-102.4 102.4-102.4s102.4 46.08 102.4 102.4v102.4h-102.4c-56.32 0-102.4-46.08-102.4-102.4z m460.8 256c0 56.32-46.08 102.4-102.4 102.4s-102.4-46.08-102.4-102.4v-102.4h102.4c56.32 0 102.4 46.08 102.4 102.4z" fill="#EC3A4E" p-id="12152"></path></svg>