<?xml version="1.0" standalone="no"?><!DOCTYPE svg PUBLIC "-//W3C//DTD SVG 1.1//EN" "http://www.w3.org/Graphics/SVG/1.1/DTD/svg11.dtd"><svg t="1712307783887" class="icon" viewBox="0 0 1204 1024" version="1.1" xmlns="http://www.w3.org/2000/svg" p-id="23743" xmlns:xlink="http://www.w3.org/1999/xlink" width="75.25" height="64"><path d="M1075.701961 348.591686a448.351373 448.351373 0 0 0-100.251608 75.053177 412.009412 412.009412 0 0 1-99.267765 74.992941c-53.820235 30.388706-84.992 38.53051-115.079529 45.879216a424.297412 424.297412 0 0 0-115.932863 46.71247 444.536471 444.536471 0 0 0-100.382118 75.103373 413.354667 413.354667 0 0 1-99.538823 75.143529 424.086588 424.086588 0 0 1-115.149804 46.612079 424.297412 424.297412 0 0 0-115.922824 46.71247 450.058039 450.058039 0 0 0-100.392156 75.103373l-1.887373 1.766902 1.807059 3.714509c0.722824 0.943686 1.525961-0.020078 2.519843-0.943686a413.364706 413.364706 0 0 1 99.528784-75.123451 424.076549 424.076549 0 0 1 115.149804-46.612078 424.297412 424.297412 0 0 0 115.942902-46.712471 450.058039 450.058039 0 0 0 100.392157-75.123451 413.364706 413.364706 0 0 1 99.528784-75.123451 424.086588 424.086588 0 0 1 115.149804-46.612078 424.297412 424.297412 0 0 0 115.922824-46.712471 448.351373 448.351373 0 0 0 100.281725-75.043137 416.928627 416.928627 0 0 1 99.197491-75.123451 424.076549 424.076549 0 0 1 115.149803-46.592c2.138353-0.732863 4.34698-1.315137 6.625883-1.776941l-1.817098-3.71451c-1.857255 0.883451-3.704471 0.933647-5.642039 1.706667a413.95702 413.95702 0 0 0-115.922824 46.71247z" fill="#1FBCD3" opacity=".8" p-id="23744"></path><path d="M1064.819451 328.543373a448.351373 448.351373 0 0 0-100.261647 75.053176 413.364706 413.364706 0 0 1-99.528784 75.143529c-53.810196 30.388706-84.981961 38.53051-115.069491 45.859138a425.291294 425.291294 0 0 0-116.073411 46.792784 450.058039 450.058039 0 0 0-100.382118 75.123451 413.364706 413.364706 0 0 1-99.518745 75.123451 424.076549 424.076549 0 0 1-115.159843 46.612078A424.297412 424.297412 0 0 0 202.892549 814.983529a450.058039 450.058039 0 0 0-100.392157 75.123451l-1.877333 1.746824 1.817098 3.71451c0.702745 0.953725 1.706667 0.030118 2.509804-0.943687a413.364706 413.364706 0 0 1 99.528784-75.123451 424.086588 424.086588 0 0 1 115.149804-46.612078 424.297412 424.297412 0 0 0 115.932863-46.712471 450.058039 450.058039 0 0 0 100.392157-75.123451 413.364706 413.364706 0 0 1 99.528784-75.123451 423.223216 423.223216 0 0 1 115.109647-46.411294 424.297412 424.297412 0 0 0 115.932863-46.71247 450.037961 450.037961 0 0 0 100.372078-75.123451 413.354667 413.354667 0 0 1 99.548863-75.14353 419.137255 419.137255 0 0 1 115.149804-46.592c2.128314-0.722824 4.316863-1.315137 6.625882-1.776941l-1.827137-3.71451c-1.847216 0.903529-3.694431 0.933647-5.621961 1.706667a427.871373 427.871373 0 0 0-115.952941 46.401255v-0.010039z" fill="#1FBCD3" opacity=".8" p-id="23745"></path><path d="M1053.816471 308.906667a450.058039 450.058039 0 0 0-100.392157 75.113411 413.364706 413.364706 0 0 1-99.528785 75.14353c-53.940706 30.46902-84.981961 38.53051-115.06949 45.859137a424.437961 424.437961 0 0 0-116.003137 46.592 448.351373 448.351373 0 0 0-100.261647 75.063216 413.354667 413.354667 0 0 1-99.538824 75.093333 424.086588 424.086588 0 0 1-115.149804 46.622118A424.297412 424.297412 0 0 0 191.949804 795.105882a448.351373 448.351373 0 0 0-100.261647 75.043138l-1.887373 1.756862 1.817098 3.71451c0.632471 0.823216 1.505882-0.010039 2.509804-0.933647l-0.060235 0.200784a413.354667 413.354667 0 0 1 99.538824-75.143529 424.076549 424.076549 0 0 1 115.149803-46.592 424.297412 424.297412 0 0 0 115.922824-46.712471 448.351373 448.351373 0 0 0 100.261647-75.053176 414.057412 414.057412 0 0 1 99.45851-75.264A429.025882 429.025882 0 0 1 739.488627 509.389804a424.297412 424.297412 0 0 0 115.952942-46.712471 442.88 442.88 0 0 0 100.251607-75.053176 413.364706 413.364706 0 0 1 99.528785-75.123451 424.076549 424.076549 0 0 1 115.159843-46.612079c2.118275-0.722824 4.336941-1.305098 6.605804-1.78698l-1.79702-3.71451c-1.867294 0.903529-3.694431 0.963765-5.652078 1.706667a427.469804 427.469804 0 0 0-115.722039 46.782745v0.020078z" fill="#1FBCD3" opacity=".8" p-id="23746"></path><path d="M1042.984157 288.988863a445.05851 445.05851 0 0 0-100.432314 75.304157 413.364706 413.364706 0 0 1-99.528784 75.143529c-53.940706 30.479059-84.981961 38.53051-115.06949 45.879216a424.297412 424.297412 0 0 0-115.932863 46.71247 448.351373 448.351373 0 0 0-100.261647 75.033098 413.364706 413.364706 0 0 1-99.528784 75.14353 421.084863 421.084863 0 0 1-115.430902 46.411294 424.297412 424.297412 0 0 0-115.932863 46.732549 448.351373 448.351373 0 0 0-100.261647 75.053176l-1.877334 1.746824 1.807059 3.71451c0.64251 0.823216 1.716706 0.030118 2.519843-0.943687l-0.130509 0.090353a413.364706 413.364706 0 0 1 99.518745-75.143529 426.054275 426.054275 0 0 1 115.420862-46.752628 424.297412 424.297412 0 0 0 115.932863-46.71247 450.058039 450.058039 0 0 0 100.392157-75.123451 413.364706 413.364706 0 0 1 99.528784-75.143529 424.076549 424.076549 0 0 1 115.149804-46.592 424.297412 424.297412 0 0 0 115.922824-46.712471 450.058039 450.058039 0 0 0 100.392157-75.123451 413.364706 413.364706 0 0 1 99.528784-75.143529 424.086588 424.086588 0 0 1 115.159843-46.592c2.128314-0.722824 4.336941-1.325176 6.615843-1.786981l-1.807059-3.71451c-1.857255 0.903529-3.694431 0.943686-5.62196 1.706667a436.936784 436.936784 0 0 0-116.073412 46.812863z" fill="#1FBCD3" opacity=".8" p-id="23747"></path><path d="M1031.790431 269.271843a450.058039 450.058039 0 0 0-100.392156 75.123451 413.354667 413.354667 0 0 1-99.538824 75.14353c-53.940706 30.479059-84.971922 38.53051-115.049412 45.879215a424.297412 424.297412 0 0 0-115.932863 46.712471 448.351373 448.351373 0 0 0-100.261647 75.033098 414.780235 414.780235 0 0 1-99.739607 75.093333 424.086588 424.086588 0 0 1-115.149804 46.592 429.176471 429.176471 0 0 0-115.862589 46.85302 444.305569 444.305569 0 0 0-100.522666 74.87247l-1.887373 1.746824 1.807059 3.71451c0.64251 0.823216 1.515922-0.020078 2.509804-0.943687l0.200784 0.070275a412.280471 412.280471 0 0 1 99.488628-74.942745 424.076549 424.076549 0 0 1 115.149804-46.612079 424.297412 424.297412 0 0 0 115.932862-46.71247 448.351373 448.351373 0 0 0 100.261647-75.033098 413.364706 413.364706 0 0 1 99.528785-75.14353 424.076549 424.076549 0 0 1 115.149804-46.612078 424.297412 424.297412 0 0 0 115.932862-46.712471 450.058039 450.058039 0 0 0 100.392157-75.113411 413.364706 413.364706 0 0 1 99.518745-75.133491 423.825569 423.825569 0 0 1 115.009255-46.853019c2.138353-0.732863 4.34698-1.315137 6.625883-1.786981l-1.807059-3.714509c-1.857255 0.89349-3.71451 0.943686-5.642039 1.706666a428.885333 428.885333 0 0 0-115.72204 46.782745z" fill="#1FBCD3" opacity=".8" p-id="23748"></path><path d="M1020.506353 249.444392a448.351373 448.351373 0 0 0-100.271686 75.053177 413.364706 413.364706 0 0 1-99.518745 75.143529c-53.940706 30.45898-84.971922 38.53051-115.07953 45.859137a424.297412 424.297412 0 0 0-115.922823 46.732549 448.351373 448.351373 0 0 0-100.251608 75.033098 413.354667 413.354667 0 0 1-99.538824 75.14353 424.217098 424.217098 0 0 1-115.210039 46.481568 425.21098 425.21098 0 0 0-116.153725 46.662275 450.058039 450.058039 0 0 0-100.392157 75.093333l-1.877334 1.776941 1.817098 3.71451c0.652549 0.823216 1.706667 0.030118 2.509804-0.943686l0.210824 0.050196a413.364706 413.364706 0 0 1 99.528784-75.123451 424.076549 424.076549 0 0 1 115.149804-46.612078 430.451451 430.451451 0 0 0 116.153726-46.662275 448.351373 448.351373 0 0 0 100.251607-75.043137 413.364706 413.364706 0 0 1 99.528785-75.13349 423.092706 423.092706 0 0 1 115.019294-46.531765 424.297412 424.297412 0 0 0 115.932863-46.712471 450.058039 450.058039 0 0 0 100.392156-75.123451 413.364706 413.364706 0 0 1 99.528785-75.143529 419.137255 419.137255 0 0 1 115.149804-46.592c2.138353-0.722824 4.34698-1.315137 6.625882-1.776941l-1.817098-3.71451c-1.847216 0.903529-3.704471 0.933647-5.632 1.706667a431.184314 431.184314 0 0 0-116.133647 46.662274z" fill="#1FBCD3" opacity=".8" p-id="23749"></path><path d="M149.483922 720.394039c53.810196-30.398745 84.971922-38.53051 115.06949-45.879215A424.297412 424.297412 0 0 0 380.486275 627.802353c36.843922-20.078431 70.615843-45.347137 100.261647-75.033098a413.364706 413.364706 0 0 1 99.528784-75.14353c53.810196-30.398745 84.961882-38.53051 115.06949-45.879215a424.297412 424.297412 0 0 0 115.932863-46.712471 448.351373 448.351373 0 0 0 100.241568-75.033098 412.983216 412.983216 0 0 1 99.408314-75.073255 419.127216 419.127216 0 0 1 115.159843-46.602039c2.118275-0.712784 4.336941-1.315137 6.605804-1.776941l-1.797019-3.71451c-1.867294 0.903529-3.694431 0.943686-5.652079 1.706667a414.619608 414.619608 0 0 0-115.922823 46.732549 448.351373 448.351373 0 0 0-100.251608 75.043137 413.94698 413.94698 0 0 1-99.538824 75.143529c-53.820235 30.388706-84.971922 38.520471-115.049411 45.879216a424.297412 424.297412 0 0 0-115.942902 46.702431 448.351373 448.351373 0 0 0-100.261647 75.043138 413.364706 413.364706 0 0 1-99.518746 75.143529 419.950431 419.950431 0 0 1-115.250196 46.47153A424.297412 424.297412 0 0 0 147.576471 717.412392a448.351373 448.351373 0 0 0-100.261647 75.043137l-1.867295 1.756863 1.817098 3.71451c0.793098-0.973804 1.66651-1.807059 2.539922-2.650353a422.811608 422.811608 0 0 1 99.659294-74.88251h0.020079z" fill="#1FBCD3" opacity=".8" p-id="23750"></path><path d="M998.26949 210.642824a448.351373 448.351373 0 0 0-100.261647 75.033098 412.009412 412.009412 0 0 1-99.287843 75.00298 419.137255 419.137255 0 0 1-115.139765 46.581961 424.297412 424.297412 0 0 0-115.922823 46.732549 450.058039 450.058039 0 0 0-100.402196 75.123451 413.485176 413.485176 0 0 1-99.45851 75.264 424.076549 424.076549 0 0 1-115.149804 46.581961 429.477647 429.477647 0 0 0-116.013177 46.58196 450.058039 450.058039 0 0 0-100.382117 75.14353l-1.877333 1.746823 1.807058 3.71451c0.722824 0.100392 1.646431-0.933647 2.519843-1.79702a413.364706 413.364706 0 0 1 99.548863-75.123451 424.086588 424.086588 0 0 1 115.139765-46.612078 424.297412 424.297412 0 0 0 115.932863-46.712471 450.058039 450.058039 0 0 0 100.392157-75.123451 412.400941 412.400941 0 0 1 99.408313-75.053176 424.086588 424.086588 0 0 1 115.149804-46.612078 424.297412 424.297412 0 0 0 115.922824-46.712471c36.843922-20.078431 70.615843-45.347137 100.261647-75.043137a412.521412 412.521412 0 0 1 99.317961-75.173647 419.137255 419.137255 0 0 1 115.179921-46.612079c2.128314-0.722824 4.336941-1.315137 6.615843-1.776941l-1.807059-3.71451c-1.857255 0.883451-3.71451 0.933647-5.642039 1.706667a435.049412 435.049412 0 0 0-115.852549 46.85302z" fill="#1FBCD3" opacity=".8" p-id="23751"></path><path d="M987.437176 190.704941a448.351373 448.351373 0 0 0-100.251607 75.063216 413.364706 413.364706 0 0 1-99.518745 75.13349c-53.940706 30.46902-84.992 38.53051-115.07953 45.859137a430.451451 430.451451 0 0 0-116.133647 46.662275 448.351373 448.351373 0 0 0-100.261647 75.063216 413.364706 413.364706 0 0 1-99.528784 75.12345 424.076549 424.076549 0 0 1-115.149804 46.612079 424.297412 424.297412 0 0 0-115.932863 46.712471 450.058039 450.058039 0 0 0-100.392157 75.12345l-1.877333 1.766902 1.807059 3.71451c0.64251 0.803137 1.505882-0.040157 2.519843-0.943686l0.12047-0.090353a413.364706 413.364706 0 0 1 99.528785-75.123451A424.076549 424.076549 0 0 1 242.447059 634.779608a424.297412 424.297412 0 0 0 115.932863-46.712471 450.058039 450.058039 0 0 0 100.382117-75.123451 413.364706 413.364706 0 0 1 99.538824-75.123451 419.137255 419.137255 0 0 1 115.149804-46.612078 424.297412 424.297412 0 0 0 115.922823-46.712471 450.058039 450.058039 0 0 0 100.392157-75.123451 413.364706 413.364706 0 0 1 99.538824-75.123451 429.035922 429.035922 0 0 1 115.06949-46.752627c2.138353-0.702745 4.34698-1.305098 6.625882-1.766902l-1.797019-3.71451c-1.867294 0.89349-3.71451 0.943686-5.652079 1.706667a437.800157 437.800157 0 0 0-116.103529 46.993568h-0.01004z" fill="#1FBCD3" opacity=".8" p-id="23752"></path><path d="M1092.367059 124.355765a424.297412 424.297412 0 0 0-115.922824 46.71247 450.058039 450.058039 0 0 0-100.392157 75.123451 413.364706 413.364706 0 0 1-99.518745 75.14353c-53.940706 30.45898-84.992 38.53051-115.079529 45.859137a424.297412 424.297412 0 0 0-115.922824 46.712471 448.351373 448.351373 0 0 0-100.261647 75.053176 413.364706 413.364706 0 0 1-99.528784 75.143529 424.086588 424.086588 0 0 1-115.159843 46.592 424.297412 424.297412 0 0 0-115.932863 46.712471 439.185569 439.185569 0 0 0-100.392157 75.123451l-1.867294 1.766902 1.79702 3.71451c0.652549 0.823216 1.706667 0.020078 2.509804-0.943687a413.354667 413.354667 0 0 1 99.548862-75.13349 424.076549 424.076549 0 0 1 115.149804-46.602039 424.297412 424.297412 0 0 0 115.922824-46.712471 439.185569 439.185569 0 0 0 100.392157-75.123451 413.364706 413.364706 0 0 1 99.528784-75.143529 419.127216 419.127216 0 0 1 115.159843-46.581961 424.297412 424.297412 0 0 0 115.932863-46.72251 450.058039 450.058039 0 0 0 100.382118-75.12345 413.364706 413.364706 0 0 1 99.528784-75.14353 419.127216 419.127216 0 0 1 115.149804-46.592c2.148392-0.722824 4.336941-1.325176 6.625882-1.78698l-1.807059-3.71451c-2.058039 0.863373-3.975529 0.752941-5.822745 1.66651h-0.020078z" fill="#1FBCD3" opacity=".8" p-id="23753"></path><path d="M4.678275 716.830118l0.070274 0.12047a413.364706 413.364706 0 0 1 99.528784-75.143529 419.127216 419.127216 0 0 1 115.149804-46.592 424.899765 424.899765 0 0 0 116.003138-46.923294 448.351373 448.351373 0 0 0 100.241568-75.033098 413.354667 413.354667 0 0 1 99.548863-75.14353 423.223216 423.223216 0 0 1 115.089569-46.401255 424.297412 424.297412 0 0 0 115.932862-46.722509 450.058039 450.058039 0 0 0 100.392157-75.123451 413.364706 413.364706 0 0 1 99.528784-75.123451 424.076549 424.076549 0 0 1 115.159844-46.612079c2.128314-0.712784 4.336941-1.315137 6.615843-1.776941l-1.807059-3.71451c-1.857255 0.903529-3.71451 0.943686-5.642039 1.706667a429.477647 429.477647 0 0 0-116.003138 46.602039 450.439529 450.439529 0 0 0-100.522666 75.193726 413.364706 413.364706 0 0 1-99.518745 75.13349c-53.940706 30.479059-84.992 38.53051-115.07953 45.879215a424.297412 424.297412 0 0 0-115.932863 46.712471 448.351373 448.351373 0 0 0-100.261647 75.053176 413.364706 413.364706 0 0 1-99.518745 75.123451 429.035922 429.035922 0 0 1-115.079529 46.752628A424.297412 424.297412 0 0 0 102.640941 637.490196a441.615059 441.615059 0 0 0-100.291765 74.721882l-1.867294 1.756863 1.807059 3.71451c1.445647 1.034039 2.369255 0 2.389334-0.853333z" fill="#1FBCD3" opacity=".8" p-id="23754"></path><path d="M408.95749 242.286431l-12.087215-32.105411-33.169569-8.051451 26.664157-21.483922-2.519843-34.083137 28.702117 18.783372 31.593412-12.970666-8.95498 33.049098 22.086274 26.162196-34.263843 1.596235-18.030431 29.113726h-0.020079z m212.650667-71.117804l9.547294-32.878431-21.88549-26.433255 34.273882-1.264941L661.985882 81.92l11.545098 32.075294 33.229804 8.683922-26.965333 20.992 2.058039 34.163451-28.370823-19.124706-31.884549 12.458666z m191.718902 72.483138l26.322823-21.805177-3.252706-34.163451 29.053491 18.231216 31.422745-13.552941-8.352628 33.219764 22.517961 25.73051-34.083137 2.17851-17.498353 29.455059-12.719686-31.733961-33.41051-7.529412v-0.020078zM278.287059 375.356235l2.389333 34.133334-28.571608-18.863687-31.663686 12.850196 9.075451-33.129411-21.985882-26.021647 34.053019-1.656471 18.221177-29.043451 11.966745 32.185726 33.259921 8.131764-26.74447 21.413647zM259.212549 590.426353l21.132549 26.88502-34.243765 0.401568-18.944 28.431059-11.043137-32.366431-32.928627-9.366589 27.447215-20.439843-1.264941-34.263843 27.959216 19.857569 32.055216-11.866353-10.169726 32.707765v0.020078z m511.61851 185.675294a309.428706 309.428706 0 0 1-343.511843-13.412392 309.077333 309.077333 0 0 1-118.904471-322.509804 309.669647 309.669647 0 0 1 252.54651-233.311373 309.007059 309.007059 0 0 1 312.06902 144.042667c88.70651 145.719216 43.148549 335.811765-102.199216 425.190902zM455.29851 260.718431A294.701176 294.701176 0 0 0 317.82149 558.280784c25.33898 160.938667 176.338824 270.878118 337.27749 245.539138a295.002353 295.002353 0 0 0 192.682667-117.860393 294.831686 294.831686 0 0 0 13.121255-327.539451 294.068706 294.068706 0 0 0-182.563137-132.818823 294.671059 294.671059 0 0 0-223.041255 35.137255z" fill="#1FBCD3" opacity=".8" p-id="23755"></path><path d="M742.279529 730.734431c-120.661333 73.567373-277.945725 35.418353-351.523137-85.232941-73.567373-120.671373-35.398275-277.965804 85.263059-351.533176 120.651294-73.567373 277.935686-35.408314 351.503059 85.24298 73.246118 120.671373 35.137255 277.775059-85.232941 351.523137h-0.01004zM479.884549 300.41349c-116.545255 71.519373-154.232471 224.627451-82.572549 341.112471 71.308549 117.037176 224.195765 154.001569 341.152627 82.582588 117.027137-71.29851 154.081882-224.045176 82.572549-341.142588-71.449098-116.956863-224.105412-153.881098-341.152627-82.572549v0.020078z" fill="#1FBCD3" opacity=".8" p-id="23756"></path><path d="M853.212863 911.380078c-220.431059 133.89302-507.683137 64.552157-642.841098-155.105882-134.344784-220.320627-64.351373-507.632941 154.844862-642.710588 220.431059-133.872941 507.612863-64.672627 642.780863 155.00549 134.123922 220.260392 65.27498 508.626824-154.804706 642.81098h0.020079z m-480.075294-785.859764C160.276078 255.698824 92.089725 535.511843 222.017255 748.493804c129.967686 213.032157 410.152157 280.997647 622.883137 150.869333 212.86149-130.198588 281.098039-410.202353 150.969726-622.943372C865.440627 62.84549 586.721882-4.628078 373.137569 125.490196v0.020079z" fill="#1FBCD3" opacity=".8" p-id="23757"></path><path d="M872.488157 942.732549a504.842039 504.842039 0 0 1-508.416 17.066667A504.751686 504.751686 0 0 1 99.056941 525.552941 504.57098 504.57098 0 0 1 346.674196 81.116863C583.619765-63.849412 895.678745 11.043137 1040.51451 248.932392c144.564706 238.029804 69.421176 548.201412-168.026353 693.790118v0.010039zM350.549333 87.552C116.374588 230.580706 42.36549 537.700392 185.21349 770.961569c142.817882 233.271216 450.349176 308.234039 683.409569 165.345882 234.174745-143.018667 308.234039-450.359216 165.335843-683.419608C891.14102 19.636706 584.724078-55.466667 350.549333 87.552z" fill="#1FBCD3" opacity=".8" p-id="23758"></path><path d="M478.037333 529.237333l-8.242196-14.275764 95.533177-55.155451 8.242196 14.275764 10.37051-5.983372-13.432471-23.250824-50.547451 29.184a361.421804 361.421804 0 0 0-17.638902-11.886431l-7.228235 10.24c5.220392 3.112157 9.637647 5.89302 13.251764 8.352627l-54.091294 31.221961 13.422432 23.260863 10.36047-5.983373z m99.900236-42.345411l-5.109961-8.83451-88.95749 51.350588 5.099921 8.844549 88.96753-51.360627z m-58.729412 132.316862c23.050039-23.873255 27.828706-47.74651 14.325961-71.629804l22.688627-13.091137 16.26353 28.180079c6.224314 10.782118 14.607059 13.131294 25.138196 7.047529l20.590431-11.886431c9.015216-5.210353 12.02698-11.776 9.015216-19.696942-1.606275-4.919216-4.096-11.00298-7.499294-18.251294a191.548235 191.548235 0 0 1-13.312 2.630275c3.885176 7.308549 6.605804 13.091137 8.171921 17.367843 1.566118 4.256627-0.522039 8.041412-6.244392 11.344314l-13.402353 7.730196c-5.471373 3.172392-9.818353 1.967686-13.030902-3.594039l-15.460392-26.784628 40.819451-23.572078-5.180235-8.96502L483.287843 564.60549l5.180235 8.975059 35.006746-20.208941c10.762039 19.616627 5.431216 39.654902-16.00251 60.124863 4.517647 1.987765 8.432941 3.895216 11.715764 5.702274z m105.472-110.602039a2798.642196 2798.642196 0 0 1 34.856157-28.049569c-1.546039-3.262745-3.011765-6.686118-4.407216-10.260078-6.595765 5.491451-15.038745 12.277961-25.318902 20.34949 1.807059-19.245176 2.891294-39.634824 3.252706-61.189019l-12.047059 0.722823c0.210824 7.569569 0.301176 14.627137 0.26102 21.162667-5.220392 3.232627-10.229961 6.324706-15.038745 9.276235 0.602353-12.378353 0.301176-30.117647-0.90353-53.227921l-11.796078 1.746823c2.94149 24.365176 3.533804 43.971765 1.766902 58.799686l7.358745 7.208157c5.50149-3.794824 11.655529-7.971137 18.472157-12.518902-0.431686 16.484392-1.726745 29.073569-3.875138 37.797647l7.418981 8.181961z m99.227608-96.045176l-5.260549-9.09553-30.960941 17.869804-11.374432-19.70698 35.378196-20.429804-5.25051-9.105569-35.388235 20.429804-11.665569-20.21898-10.10949 5.842823 11.665569 20.218981-34.996706 20.208941 5.25051 9.095529 35.006745-20.208941 11.374431 19.71702-30.830431 17.799529 5.25051 9.095529 71.910902-41.512156z m-21.293177 100.582902l-4.517647-7.830589 47.003608-27.146039 4.517647 7.830588 9.85851-5.682196-29.615686-51.310431-66.720628 38.520471 29.615686 51.300392 9.85851-5.682196z m37.376-43.821177l-47.003608 27.136-14.888156-25.770667 47.013647-27.146039 14.878117 25.780706z m-101.11498 68.828863a978.321569 978.321569 0 0 1 36.623059-34.625255 148.560314 148.560314 0 0 1-5.170196-9.818353 1137.141961 1137.141961 0 0 1-39.855687 36.321882l8.402824 8.121726z" fill="#00CEBF" opacity=".8" p-id="23759"></path></svg>