<?xml version="1.0" standalone="no"?><!DOCTYPE svg PUBLIC "-//W3C//DTD SVG 1.1//EN" "http://www.w3.org/Graphics/SVG/1.1/DTD/svg11.dtd"><svg t="1712307086990" class="icon" viewBox="0 0 1772 1024" version="1.1" xmlns="http://www.w3.org/2000/svg" p-id="6883" xmlns:xlink="http://www.w3.org/1999/xlink" width="110.75" height="64"><path d="M114.626866 955.223881h53.492537c4.202985 0 7.641791 3.438806 7.641791 7.641791s-3.438806 7.641791-7.641791 7.641791H114.626866c-4.202985 0-7.641791-3.438806-7.641791-7.641791s3.438806-7.641791 7.641791-7.641791zM213.970149 955.223881h1352.597015c4.202985 0 7.641791 3.438806 7.641791 7.641791s-3.438806 7.641791-7.641791 7.641791H213.970149c-4.202985 0-7.641791-3.438806-7.641791-7.641791s3.438806-7.641791 7.641791-7.641791zM1608.597015 955.223881h99.343284c4.202985 0 7.641791 3.438806 7.641791 7.641791s-3.438806 7.641791-7.641791 7.641791h-99.343284c-4.202985 0-7.641791-3.438806-7.641791-7.641791s3.438806-7.641791 7.641791-7.641791z" fill="" p-id="6884"></path><path d="M475.701493 376.358209c49.671642-5.731343 273.19403-34.38806 343.880597 0 46.997015 22.925373 69.540299 45.086567 66.865671 66.865672 3.820896-29.420896 42.79403-55.402985 116.537314-78.328359 29.038806-9.170149 56.931343-7.641791 84.059701-7.641791 126.089552 9.552239 152.835821 13.373134 208.238806 32.477612 2.674627 170.79403-1.146269 359.164179-11.462686 565.492538H489.074627c-7.641791-328.597015-12.226866-521.552239-13.373134-578.865672z" fill="#424242" p-id="6885"></path><path d="M504.358209 863.522388l764.179104-11.462687v103.16418H504.358209z" fill="#794848" p-id="6886"></path><path d="M490.985075 393.552239c71.832836-12.608955 137.934328-19.104478 197.922388-19.104478 89.791045 0 159.713433 7.641791 197.922388 62.280597V955.223881c-137.552239-39.355224-264.78806-39.355224-382.089552 0-0.38209-72.597015-4.967164-259.820896-13.755224-561.671642z" fill="#FFD9D6" p-id="6887"></path><path d="M1283.820896 403.104478c-68.776119-22.925373-136.78806-34.38806-204.417911-34.38806-101.253731 0-154.746269 29.038806-192.955224 68.01194V955.223881c138.698507-39.355224 266.698507-39.355224 384 0 0-72.597015 4.585075-256.764179 13.373135-552.119403z" fill="#FFE8E7" p-id="6888"></path><path d="M882.577194 951.574925l2.017433-515.820895 7.641791 0.026746-2.017433 515.820896z" fill="#979797" p-id="6889"></path><path d="M527.665672 436.728358c182.256716-25.6 291.534328-21.014925 328.597015 13.373135-1.146269 17.958209-2.674627 29.420896-3.820896 34.388059-165.444776-20.250746-272.047761-19.868657-319.044776 1.910448-4.967164-33.241791-6.877612-49.671642-5.731343-49.671642z m0 314.459702c182.256716-25.6 291.534328-21.014925 328.597015 13.373134-1.146269 17.958209-2.674627 29.420896-3.820896 34.38806-165.444776-20.250746-272.047761-19.868657-319.044776 1.910447-4.967164-32.859701-6.877612-49.671642-5.731343-49.671641z m0-231.928359c182.256716-25.6 291.534328-21.014925 328.597015 13.373135-1.146269 17.958209-2.674627 29.420896-3.820896 34.38806-165.444776-20.250746-272.047761-19.868657-319.044776 1.910447-4.967164-33.241791-6.877612-49.671642-5.731343-49.671642z m0 314.841792c182.256716-25.6 291.534328-21.014925 328.597015 13.373134-1.146269 17.958209-2.674627 29.420896-3.820896 34.38806-165.444776-20.250746-272.047761-19.868657-319.044776 1.910447-4.967164-33.241791-6.877612-49.671642-5.731343-49.671641z m-0.38209-239.18806c180.728358-18.340299 290.00597-9.552239 328.597015 25.6-1.146269 34.00597-1.146269 66.865672 0 98.197015-147.868657-35.534328-257.528358-38.208955-328.597015-7.641791 1.146269-59.98806 1.146269-98.961194 0-116.155224z" fill="#FFC0C0" p-id="6890"></path><path d="M1275.032836 316.370149c-15.283582 0-27.510448-12.226866-27.510448-27.510448s12.226866-27.510448 27.510448-27.510447 27.510448 12.226866 27.510448 27.510447-12.608955 27.510448-27.510448 27.510448z m0-43.176119c-8.78806 0-16.047761 7.259701-16.047761 16.047761s7.259701 16.047761 16.047761 16.047761 16.047761-7.259701 16.047761-16.047761-7.259701-16.047761-16.047761-16.047761z" fill="#FFB3B3" p-id="6891"></path><path d="M371.773134 860.465672c-27.128358 0-48.907463-22.161194-48.907462-48.907463s22.161194-48.907463 48.907462-48.907463 48.907463 22.161194 48.907463 48.907463-21.779104 48.907463-48.907463 48.907463z m0-86.734329c-20.632836 0-37.444776 16.81194-37.444776 37.444776s16.81194 37.444776 37.444776 37.444777 37.444776-16.81194 37.444776-37.444777-16.429851-37.444776-37.444776-37.444776z" fill="#FC9191" p-id="6892"></path><path d="M1022.089552 219.319403c-37.826866 0-68.776119-30.949254-68.776119-68.776119s30.949254-68.776119 68.776119-68.77612 68.776119 30.949254 68.77612 68.77612c-0.38209 37.826866-30.949254 68.776119-68.77612 68.776119z m0-126.089552c-31.331343 0-57.313433 25.6-57.313433 57.313433 0 31.331343 25.6 57.313433 57.313433 57.313432 31.331343 0 57.313433-25.6 57.313433-57.313432-0.38209-31.331343-25.98209-57.313433-57.313433-57.313433z" fill="#919FFC" p-id="6893"></path><path d="M885.301493 312.167164m-21.779105 0a21.779104 21.779104 0 1 0 43.558209 0 21.779104 21.779104 0 1 0-43.558209 0Z" fill="#919FFC" p-id="6894"></path><path d="M322.483582 546.770149l-26.746269-7.641791 26.746269-7.641791 7.641791-27.128358 7.641791 27.128358 27.128358 7.641791-27.128358 7.641791-7.641791 27.128358zM1429.397015 464.238806l-15.665672-8.40597 15.665672-8.40597 8.40597-15.665672 8.40597 15.665672 15.665672 8.40597-15.665672 8.40597-8.40597 15.665672z" fill="#FF913D" p-id="6895"></path><path d="M400.81194 247.59403L366.80597 238.041791l34.00597-9.170149 9.17015-34.00597 9.552238 34.00597 34.005971 9.170149-34.005971 9.552239-9.552238 34.00597zM1409.528358 702.280597l-34.00597-9.552239 34.00597-9.170149 9.170149-34.00597 9.552239 34.00597 34.00597 9.170149-34.00597 9.552239-9.552239 34.00597z" fill="#FFDB3D" p-id="6896"></path><path d="M1358.328358 884.537313m-17.19403 0a17.19403 17.19403 0 1 0 34.38806 0 17.19403 17.19403 0 1 0-34.38806 0Z" fill="#FF9292" p-id="6897"></path><path d="M1105.767164 579.629851c-3.820896 3.438806-12.226866 7.641791-25.21791 12.226865 0 0.38209 0 0.38209 0.382089 0.38209 0.38209 1.146269 0.764179 2.292537 0.764179 3.438806v25.21791c0 4.967164 2.674627 8.78806 8.405971 11.462687 5.349254 1.910448 10.698507 3.056716 16.047761 3.056716 10.316418-0.38209 15.283582-2.674627 15.665671-6.877612 0-3.056716-1.528358-8.40597-3.820895-16.81194v-2.292537c0.38209-0.38209 1.528358-1.146269 2.292537-1.528358 1.146269 0 1.910448 0.38209 2.292537 1.146268 3.438806 6.877612 4.967164 13.373134 4.967165 19.486567 0 2.292537-1.146269 4.967164-3.056717 7.259702-4.202985 4.202985-10.698507 6.113433-20.250746 6.495522-5.349254 0-10.316418-0.38209-14.137313-1.528358-7.259701-2.292537-12.226866-6.495522-14.137314-12.608955-1.146269-2.292537-1.528358-5.349254-1.528358-8.40597v-24.071642-1.910448c-1.910448 0.764179-4.202985 1.528358-6.495522 1.910448l-8.023881 2.292537v1.146269c0 1.528358-0.764179 4.202985-1.910448 8.023881s-3.438806 8.78806-6.113433 14.901492c-2.674627 5.731343-5.349254 11.462687-8.40597 16.429851-1.146269 1.910448-2.292537 3.056716-3.056716 3.820895-0.38209 1.146269-1.528358 1.528358-2.674627 1.528359-1.146269 0-1.910448-1.146269-1.910448-2.674627 0-1.146269 0-1.910448 0.764179-3.056717 1.528358-3.438806 3.438806-6.877612 5.349254-10.698507 1.910448-4.202985 3.820896-8.023881 5.349254-11.462687 1.528358-3.820896 2.674627-7.641791 3.820895-11.080597 0.38209-1.910448 1.146269-3.438806 1.528358-4.967164-5.731343 1.910448-11.080597 3.438806-16.42985 4.585075-3.056716 0.764179-5.349254 1.146269-6.495523 1.146268h-3.820895c-1.910448 0-2.674627-1.528358-3.056717-3.820895 0-1.146269 0.764179-1.910448 2.674627-3.056717 1.146269-0.38209 2.292537-1.146269 4.202985-1.528358 12.226866-2.674627 24.453731-6.113433 36.298508-9.552239 16.81194-4.967164 29.802985-9.552239 39.355224-13.373134 0.764179 0 1.528358 0.38209 1.910447 1.146269v1.146268c-0.38209 1.528358-0.764179 2.292537-1.528358 3.056717z m-72.214925-20.632836c-0.38209 2.674627-1.528358 5.349254-2.292538 7.641791-0.38209 1.528358-0.764179 2.674627-1.528358 3.438806-0.764179 0.764179-1.910448 1.528358-3.056716 1.528358-1.146269 0-1.910448-0.764179-1.910448-2.292537 0-0.764179 0.38209-2.292537 0.764179-3.820896 0.764179-2.674627 1.528358-5.349254 1.910448-8.40597 0.38209-2.292537 0.38209-4.585075 0.38209-6.877612 0-5.349254-0.764179-9.552239-1.910448-12.608955-0.764179-1.528358-1.146269-2.674627-1.146269-3.820896 0-1.528358 0.38209-2.292537 1.146269-3.438805 0.38209-0.38209 1.146269-0.764179 2.292537-0.76418 0.764179 0 1.528358 0.38209 2.292537 0.76418 0.38209 0.38209 1.146269 1.528358 1.910448 2.674626 1.528358 3.820896 2.292537 9.170149 2.292537 15.283582 0 3.056716-0.38209 6.495522-1.146268 10.698508z m58.459701-11.080597c-1.146269-0.38209-1.528358-1.528358-1.528358-2.292537 0-0.764179 0.38209-1.528358 0.764179-1.910448 2.292537-1.910448 4.585075-3.820896 6.495523-5.731343 3.056716-3.056716 5.731343-6.495522 8.02388-10.316418-4.202985 0-13.373134 1.528358-27.510448 4.585074-11.844776 2.674627-22.925373 6.495522-34.00597 10.698508-1.146269 0.38209-1.528358 1.146269-1.910447 1.146268-1.910448 0-3.056716-1.146269-3.056717-3.438806 0-0.764179 0-1.528358 0.764179-2.292537 0.38209-0.38209 1.146269-1.146269 1.910448-1.528358 3.820896-2.292537 9.934328-4.967164 18.722388-7.641791 10.316418-3.056716 19.868657-5.349254 29.038806-6.877612 6.495522-0.764179 12.226866-1.528358 17.19403-1.528358 2.292537 0 3.820896 0.38209 4.967164 1.528358 1.146269 1.146269 1.528358 2.292537 1.528358 3.438806 0 1.910448-1.146269 4.585075-3.056716 8.02388-1.910448 3.438806-4.202985 6.113433-6.495523 8.405971-2.292537 2.674627-4.585075 4.585075-6.877612 5.731343-0.764179 0.764179-1.528358 1.146269-2.292537 1.146269s-1.910448-0.764179-2.674627-1.146269z m-13.755224 14.901492c-8.40597 3.056716-17.19403 5.731343-26.364179 8.023881-1.528358 0.38209-2.674627 1.146269-4.202985 1.146269h-0.764179c-1.910448-0.764179-2.674627-1.910448-2.674627-3.820896 0-0.764179 0.38209-1.528358 1.528358-2.292537l3.438806-1.146269c12.226866-3.438806 22.543284-6.495522 30.949254-9.934328 2.674627-1.146269 4.967164-1.910448 5.731343-1.910448 0.764179 0 1.528358 0 1.910448 0.38209 0.764179 0.38209 1.146269 1.146269 1.528358 1.910447 0 1.146269-0.38209 2.292537-1.528358 3.056717-1.910448 1.528358-5.349254 2.674627-9.552239 4.585074z m-24.071641-50.43582c-1.146269-1.146269-1.528358-2.674627-1.528359-4.202986 0.38209-1.146269 1.146269-1.910448 2.292538-2.292537h1.910447c9.552239 0.38209 17.19403 1.910448 22.925374 4.967164 1.146269 0.764179 1.910448 1.528358 1.910447 2.674627 0 2.292537-1.146269 3.820896-3.056716 4.585075-7.259701-2.292537-15.665672-3.820896-24.453731-5.731343z" fill="#280000" p-id="6898"></path><path d="M1055.713433 800.095522c-4.585075 3.438806-9.934328 6.877612-16.429851 9.552239-8.78806 4.202985-16.81194 6.877612-23.689552 8.78806-1.146269 0.38209-2.292537 0.38209-3.056717 0.382089-1.146269 0-1.910448-0.38209-2.292537-1.528358-0.38209-0.764179-0.764179-1.910448-0.764179-3.056716 0-1.528358 1.146269-2.292537 2.674627-3.056717 4.967164-1.528358 8.78806-3.056716 11.462686-3.820895 6.113433-2.292537 13.373134-5.349254 22.161194-9.170149 3.438806-1.528358 6.113433-2.674627 8.023881-3.056717h1.528358c0.764179 0 1.528358 0.38209 1.910448 1.146269v1.146269c0.38209 0.38209-0.38209 1.146269-1.528358 2.674626z m-4.585075-29.420895c-1.528358 1.528358-4.967164 3.820896-9.934328 7.259701-3.438806 2.292537-8.40597 5.731343-14.519403 9.934329-2.292537 1.528358-4.202985 2.674627-6.495523 3.438806-1.910448 0.38209-3.820896 0.764179-5.731343 0.764179-1.146269 0-1.910448-0.764179-2.292537-1.910448-0.38209-0.38209-0.38209-1.528358-0.38209-2.292537 0-1.528358 1.146269-4.202985 3.056717-7.259702 2.674627-3.056716 6.113433-6.877612 9.934328-11.844776 6.877612-9.170149 12.226866-17.19403 16.81194-24.453731-10.698507 6.495522-19.104478 10.316418-25.21791 11.462686-1.146269 0-1.910448-0.38209-3.056716-1.528358-1.528358-1.146269-1.910448-1.910448-1.910448-2.674627 0-2.292537 1.146269-5.349254 3.056716-8.788059 1.528358-3.056716 3.820896-6.495522 6.495523-9.934329 3.438806-4.585075 4.967164-9.170149 4.967164-13.373134v-3.056717c0-1.528358 0.38209-2.292537 1.528358-3.438806 0.38209-0.38209 1.528358-1.146269 2.292537-1.146268 0.764179 0.38209 1.528358 0.764179 1.910448 1.528358 0.764179 1.146269 1.146269 2.292537 1.146269 3.438806 0 8.78806-4.202985 18.722388-12.226866 30.185075 4.585075-1.910448 9.934328-4.967164 16.047761-8.78806 3.820896-1.910448 7.259701-3.056716 9.934329-3.056716 1.528358 0 2.674627 1.528358 3.056716 3.820895 0 6.495522-8.78806 19.868657-26.364179 40.119403 7.259701-4.202985 14.137313-8.40597 20.250746-11.844776 2.292537-1.146269 4.585075-1.528358 6.113433-1.528358 0.38209 0 1.146269 0.38209 1.528358 0.382089 0.38209 0.38209 1.146269 1.146269 1.146269 2.292538-0.764179 1.528358-0.764179 1.910448-1.146269 2.292537z m68.77612-18.340299c-3.056716 2.674627-10.698507 6.113433-22.543284 9.934329-6.495522 1.910448-12.991045 3.820896-18.722388 5.349253-1.910448 0.38209-3.056716 0.764179-3.820896 0.76418h-3.438806c-1.910448 0-3.056716-1.146269-3.056716-3.820896 0-1.146269 0.764179-1.910448 2.674627-2.674627 1.146269-0.38209 2.292537-1.146269 3.820895-1.528358 4.585075-1.146269 8.78806-2.292537 13.373135-3.438806 0.38209-2.292537 1.528358-5.349254 2.674627-9.170149 0.38209-6.877612 0.38209-12.226866 0.382089-16.811941-8.40597 2.292537-16.429851 4.967164-24.071642 7.259702-2.674627 0.38209-4.585075 1.146269-5.731343 1.146269-1.528358 0.38209-2.674627 0.38209-3.438806 0.382089-1.910448 0-3.056716-1.528358-3.056716-3.820895 0-1.146269 0.764179-1.910448 2.674627-3.056717 1.146269-0.38209 2.292537-1.146269 4.202985-1.146268 9.934328-2.292537 19.868657-4.967164 29.038806-8.023881-0.38209-3.056716-0.764179-6.113433-1.528359-9.934328-0.764179-2.674627-1.528358-4.967164-1.910447-7.259702-0.38209-1.528358-0.764179-2.292537-0.764179-3.056716 0-1.146269 0.38209-1.910448 1.528358-2.674627 0.764179-0.38209 1.528358-0.38209 2.674627-0.38209 1.146269 0 2.292537 1.146269 3.056716 2.674627 1.910448 3.820896 3.438806 8.40597 3.820896 13.373134 0.38209 1.910448 0.38209 3.438806 0.382089 4.585075 12.226866-3.820896 22.161194-7.641791 29.420896-10.698507 0.764179 0 1.528358 0.38209 1.910447 1.146268v1.146269c0 0.764179-0.38209 1.528358-1.146268 2.292537-3.820896 3.820896-13.755224 8.40597-29.802985 14.137314 0 5.349254-0.38209 10.698507-1.146269 15.283582-0.764179 4.585075-1.528358 8.023881-2.292537 10.698507 0.38209 0 0.38209 0 0.764179-0.382089 9.934328-3.056716 17.576119-5.731343 22.925373-8.023881 0.764179 0 1.528358 0.38209 1.910448 1.146269v1.146268c0.38209 1.528358 0 2.292537-0.764179 3.438806z m1.910447 59.223881c0.38209 0.38209 0.38209 1.146269 0.38209 1.528358 0 1.528358-0.38209 2.292537-1.528358 3.438806-5.349254 2.292537-14.137313 4.967164-26.746269 7.641791-4.585075 0.38209-8.78806 0.764179-12.608955 1.146269h-0.38209c-0.38209 2.292537-1.528358 3.438806-3.438806 3.438806s-3.056716-1.146269-3.056716-3.056717c0.38209-0.764179 0.764179-2.292537 1.146269-3.820895 0-2.674627 0.38209-4.967164 0.382089-6.877612 0-4.967164-0.764179-11.462687-2.292537-19.104478-0.38209-3.056716-1.146269-5.731343-1.528358-8.40597-0.38209-1.528358-0.764179-2.292537-0.76418-3.056716 0-1.146269 0.38209-1.910448 1.528359-2.674627 0.764179-0.38209 1.528358-0.764179 2.674627-0.764179 1.528358 0 2.674627 1.146269 3.056716 3.056716 0.38209 0.764179 0.38209 1.528358 0.764179 1.910448 1.910448-0.764179 4.202985-1.528358 6.495522-2.292537 6.495522-1.528358 13.755224-2.292537 22.161194-2.292538 5.349254 0 9.552239 0.764179 12.226866 1.910448 3.820896 1.910448 6.113433 4.967164 6.113433 9.934328-0.38209 6.113433-2.292537 11.844776-6.495522 17.57612 0 0.38209-0.38209 0.38209-0.38209 0.382089 0.764179-1.146269 1.910448-0.764179 2.292537 0.38209z m-39.737313-12.608955c0.38209 5.349254 0.764179 9.552239 0.764179 12.226865 0 2.292537 0 4.967164-0.38209 6.877612 3.056716-0.38209 6.495522-0.764179 9.934329-1.528358 5.349254-1.146269 10.698507-2.292537 15.283582-3.438806 0-0.38209 0.38209-0.38209 0.382089-0.382089 7.641791-9.170149 11.462687-16.047761 11.462687-20.632836-0.38209-3.438806-4.202985-4.967164-11.462687-4.967164-2.292537 0-5.349254 0.38209-9.170149 1.146268-3.438806 0.38209-6.877612 0.764179-10.316418 1.528358-3.820896 1.146269-6.495522 1.528358-8.02388 1.910448 1.146269 2.292537 1.528358 4.585075 1.528358 7.259702z" fill="#280000" p-id="6899"></path></svg>