<?xml version="1.0" standalone="no"?><!DOCTYPE svg PUBLIC "-//W3C//DTD SVG 1.1//EN" "http://www.w3.org/Graphics/SVG/1.1/DTD/svg11.dtd"><svg t="1712308292526" class="icon" viewBox="0 0 1024 1024" version="1.1" xmlns="http://www.w3.org/2000/svg" p-id="11449" xmlns:xlink="http://www.w3.org/1999/xlink" width="64" height="64"><path d="M934.446545 465.454545 930.909091 465.873455 930.909091 861.090909c0 25.693091-20.852364 46.545455-46.545455 46.545455L139.636364 907.636364c-25.693091 0-46.545455-20.852364-46.545455-46.545455l0-605.090909c0-25.693091 20.852364-46.545455 46.545455-46.545455l311.575273 0L488.727273 167.424 482.629818 162.909091 139.636364 162.909091c-51.432727 0-93.090909 41.658182-93.090909 93.090909l0 605.090909c0 51.432727 41.658182 93.090909 93.090909 93.090909l744.727273 0c51.432727 0 93.090909-41.658182 93.090909-93.090909L977.454545 418.909091 934.446545 465.454545zM395.636364 509.160727c0 42.449455 8.890182 82.757818 24.715636 119.296 23.505455-124.741818 154.344727-239.848727 277.783273-242.827636 0 6.795636-0.372364 117.434182-0.372364 117.434182-0.698182 5.864727 0.930909 11.962182 5.445818 16.477091 0.046545 0.046545 0.139636 0.046545 0.186182 0.093091 3.584 3.770182 8.610909 6.144 14.242909 6.144 6.190545 0 11.450182-3.025455 15.127273-7.447273l215.831273-217.274182c4.189091-4.189091 5.957818-9.728 5.678545-15.220364 0.279273-5.492364-1.489455-11.031273-5.678545-15.220364l-216.948364-218.484364c-7.866182-7.866182-20.573091-7.866182-28.439273 0-4.514909 4.514909-6.144 10.612364-5.445818 16.477091l0 117.666909C533.317818 186.321455 395.636364 343.738182 395.636364 509.160727zM696.459636 226.071273c10.333091 0 48.221091 0.232727 48.221091 0.232727L744.680727 118.411636l163.467636 167.517091-163.467636 167.470545L744.680727 346.112c0 0-35.234909-0.325818-48.221091-0.325818-92.672 0-218.344727 73.262545-261.12 143.406545C435.339636 403.176727 540.299636 226.071273 696.459636 226.071273z" fill="#1296db" p-id="11450"></path></svg>