<?xml version="1.0" standalone="no"?><!DOCTYPE svg PUBLIC "-//W3C//DTD SVG 1.1//EN" "http://www.w3.org/Graphics/SVG/1.1/DTD/svg11.dtd"><svg t="1712305236720" class="icon" viewBox="0 0 1024 1024" version="1.1" xmlns="http://www.w3.org/2000/svg" p-id="9518" xmlns:xlink="http://www.w3.org/1999/xlink" width="64" height="64"><path d="M512 512m-512 0a512 512 0 1 0 1024 0 512 512 0 1 0-1024 0Z" fill="#AA84F4" p-id="9519"></path><path d="M323.84 704l236.8-148.48c10.24-6.4 14.08-19.2 10.24-29.44l-66.56-172.8c-2.56-7.68-15.36-7.68-17.92 0L465.92 409.6c-7.68 20.48-30.72 30.72-51.2 21.76L305.92 384c-6.4-2.56-12.8 1.28-12.8 7.68l-7.68 115.2c-1.28 20.48-19.2 37.12-40.96 35.84l-62.72-3.84c-7.68 0-12.8 8.96-7.68 15.36l119.04 142.08c7.68 11.52 20.48 14.08 30.72 7.68z" fill="#FFFFFF" opacity=".5" p-id="9520"></path><path d="M317.44 376.32c0 16.64-12.8 29.44-29.44 29.44s-29.44-12.8-29.44-29.44c0-16.64 12.8-29.44 29.44-29.44 16.64 0 29.44 12.8 29.44 29.44zM586.24 285.44c0 16.64-12.8 29.44-29.44 29.44-16.64 0-29.44-12.8-29.44-29.44 0-16.64 12.8-29.44 29.44-29.44 15.36 0 29.44 12.8 29.44 29.44zM853.76 376.32c0 16.64-12.8 29.44-29.44 29.44-16.64 0-29.44-12.8-29.44-29.44 0-16.64 12.8-29.44 29.44-29.44 16.64 0 29.44 12.8 29.44 29.44zM382.72 686.08h336.64c14.08 0 26.88-10.24 29.44-24.32l42.24-218.88c2.56-10.24-10.24-17.92-17.92-11.52l-57.6 44.8c-20.48 16.64-51.2 11.52-66.56-10.24l-81.92-117.76c-5.12-6.4-14.08-6.4-19.2 0L465.92 460.8c-15.36 20.48-43.52 25.6-64 10.24l-61.44-43.52c-7.68-5.12-19.2 1.28-17.92 11.52l32 220.16c0 15.36 12.8 26.88 28.16 26.88zM746.24 747.52c0 11.52-8.96 20.48-20.48 20.48H377.6c-14.08 0-24.32-14.08-17.92-28.16 3.84-8.96 12.8-14.08 23.04-14.08h344.32c10.24 0 19.2 11.52 19.2 21.76z" fill="#FFFFFF" p-id="9521"></path></svg>