<?xml version="1.0" standalone="no"?><!DOCTYPE svg PUBLIC "-//W3C//DTD SVG 1.1//EN" "http://www.w3.org/Graphics/SVG/1.1/DTD/svg11.dtd"><svg t="1712306964817" class="icon" viewBox="0 0 1024 1024" version="1.1" xmlns="http://www.w3.org/2000/svg" p-id="12313" xmlns:xlink="http://www.w3.org/1999/xlink" width="64" height="64"><path d="M51.2 512c0 254.976 205.824 460.8 460.8 460.8s460.8-205.824 460.8-460.8S766.976 51.2 512 51.2 51.2 257.024 51.2 512z" fill="#FFF0F0" p-id="12314"></path><path d="M448.512 328.704H342.016c-19.456 0-34.816 15.36-34.816 34.816v105.472c0 19.456 15.36 34.816 34.816 34.816h105.472c19.456 0 34.816-15.36 34.816-34.816V364.544c1.024-19.456-14.336-35.84-33.792-35.84M706.56 392.192L631.808 317.44c-13.312-13.312-35.84-13.312-50.176 0l-10.24 10.24-64.512 64.512c-6.144 6.144-10.24 15.36-10.24 24.576 0 9.216 4.096 18.432 10.24 24.576l10.24 10.24 54.272 54.272 10.24 10.24c13.312 13.312 35.84 13.312 50.176 0l64.512-64.512 10.24-10.24c13.312-13.312 13.312-34.816 0-49.152M448.512 540.672H342.016c-19.456 0-34.816 15.36-34.816 34.816v105.472c0 19.456 15.36 34.816 34.816 34.816h105.472c19.456 0 34.816-15.36 34.816-34.816V575.488c1.024-19.456-14.336-34.816-33.792-34.816m210.944 0H553.984c-19.456 0-34.816 15.36-34.816 34.816v105.472c0 19.456 15.36 34.816 34.816 34.816h105.472c19.456 0 34.816-15.36 34.816-34.816V575.488c1.024-19.456-15.36-34.816-34.816-34.816" fill="#F78FBA" p-id="12315"></path></svg>