<?xml version="1.0" standalone="no"?><!DOCTYPE svg PUBLIC "-//W3C//DTD SVG 1.1//EN" "http://www.w3.org/Graphics/SVG/1.1/DTD/svg11.dtd"><svg t="1726644198619" class="icon" viewBox="0 0 1024 1024" version="1.1" xmlns="http://www.w3.org/2000/svg" p-id="2700" xmlns:xlink="http://www.w3.org/1999/xlink" width="128" height="128"><path d="M40 509.383c0-28.912 11.476-56.64 31.903-77.083L434.98 68.93c42.537-42.572 111.503-42.572 154.04 0L952.097 432.3A109.056 109.056 0 0 1 984 509.383v369.606C984 939.194 935.233 988 875.077 988h-145.23c-60.157 0-108.924-48.806-108.924-109.011V660.966c0-20.069-16.255-36.337-36.308-36.337h-145.23c-20.053 0-36.308 16.268-36.308 36.337v218.023C403.077 939.194 354.31 988 294.154 988h-145.23C88.766 988 40 939.194 40 878.989V509.383z m72.615 0v369.606c0 20.068 16.256 36.337 36.308 36.337h145.23c20.053 0 36.309-16.269 36.309-36.337V660.966c0-60.206 48.766-109.012 108.923-109.012h145.23c60.157 0 108.923 48.806 108.923 109.012v218.023c0 20.068 16.256 36.337 36.308 36.337h145.23c20.053 0 36.309-16.269 36.309-36.337V509.383c0-9.637-3.826-18.88-10.635-25.694L537.673 120.317c-14.179-14.19-37.167-14.19-51.346 0L123.25 483.69a36.352 36.352 0 0 0-10.635 25.694z" fill="#e6e6e6" p-id="2701"></path></svg>