<?xml version="1.0" standalone="no"?><!DOCTYPE svg PUBLIC "-//W3C//DTD SVG 1.1//EN" "http://www.w3.org/Graphics/SVG/1.1/DTD/svg11.dtd"><svg t="1712307324463" class="icon" viewBox="0 0 1024 1024" version="1.1" xmlns="http://www.w3.org/2000/svg" p-id="17353" xmlns:xlink="http://www.w3.org/1999/xlink" width="64" height="64"><path d="M755.712 205.824l-44.032-44.032c-6.144-6.144-16.384-6.144-22.528 0s-6.144 16.384 0 22.528l14.336 14.336H598.016c-8.192 0-15.36 7.168-15.36 15.36v1.024c0 8.192 7.168 15.36 15.36 15.36h113.664l-21.504 21.504c-6.144 6.144-6.144 16.384 0 22.528s16.384 6.144 22.528 0l44.032-44.032c3.072-3.072 5.12-7.168 4.096-11.264 0-6.144-2.048-10.24-5.12-13.312z" fill="#FFCD29" p-id="17354"></path><path d="M741.376 287.744H627.712l21.504-21.504c6.144-6.144 6.144-16.384 0-22.528s-16.384-6.144-22.528 0l-44.032 44.032c-3.072 3.072-5.12 7.168-4.096 11.264 0 4.096 1.024 8.192 4.096 11.264l44.032 44.032c6.144 6.144 16.384 6.144 22.528 0 6.144-6.144 6.144-16.384 0-22.528L634.88 319.488h106.496c8.192 0 15.36-7.168 15.36-15.36v-1.024c0-8.192-7.168-15.36-15.36-15.36z" fill="#FFCD29" p-id="17355"></path><path d="M876.544 248.832h-69.632c-6.144 0-10.24-4.096-10.24-10.24s4.096-10.24 10.24-10.24h69.632c6.144 0 10.24 4.096 10.24 10.24s-4.096 10.24-10.24 10.24zM920.576 492.544H267.264c-71.68 0-132.096-60.416-132.096-132.096s60.416-132.096 132.096-132.096h269.312c6.144 0 10.24 4.096 10.24 10.24s-4.096 10.24-10.24 10.24H267.264c-60.416 0-111.616 51.2-111.616 111.616s51.2 111.616 111.616 111.616h653.312c6.144 0 10.24 4.096 10.24 10.24s-4.096 10.24-10.24 10.24zM920.576 869.376H223.232c-71.68 0-132.096-60.416-132.096-132.096s60.416-132.096 132.096-132.096h99.328c6.144 0 10.24 4.096 10.24 10.24s-4.096 10.24-10.24 10.24h-99.328c-60.416 0-111.616 51.2-111.616 111.616s51.2 111.616 111.616 111.616h697.344c6.144 0 10.24 4.096 10.24 10.24s-4.096 10.24-10.24 10.24z" fill="#00134E" p-id="17356"></path><path d="M863.232 615.424H278.528c-36.864 0-66.56-29.696-66.56-66.56s29.696-66.56 66.56-66.56h586.752" fill="#6E7DC3" p-id="17357"></path><path d="M863.232 625.664H278.528c-41.984 0-76.8-34.816-76.8-76.8s34.816-76.8 76.8-76.8h586.752c6.144 0 10.24 4.096 10.24 10.24s-4.096 10.24-10.24 10.24H278.528c-30.72 0-56.32 25.6-56.32 56.32s25.6 56.32 56.32 56.32h584.704c6.144 0 10.24 4.096 10.24 10.24s-4.096 10.24-10.24 10.24z" fill="#00134E" p-id="17358"></path><path d="M920.576 625.664H645.12c-6.144 0-10.24-4.096-10.24-10.24s4.096-10.24 10.24-10.24h275.456c6.144 0 10.24 4.096 10.24 10.24s-4.096 10.24-10.24 10.24z" fill="#00134E" p-id="17359"></path></svg>